<svg xmlns="http://www.w3.org/2000/svg" version="1.1" width="600px" height="600px" viewBox="0 0 200 200" style="overflow:hidden!important;"><g id="svga-group-wrapper"><g id="svga-group-backs-single"><path id="SvgjsPath15912" d="M0 0h200v200H0V0z" fill="#7b1e3a" stroke-width="none" opacity="1" stroke="none"></path><path id="SvgjsPath15913" d="M0 70.8 39.2 200l39.2-86.3L0 9.9v60.9zM200 0h-47.6l23 37.5L200 0zm-28.9 104.9 16.5-40.7-70.5-26.8 54 67.5zM51.3 200h101.1v-33.1l-73.9 19.5L51.3 200zm27.2-86.3 73.9 53.2L78.5 0v113.7z" fill="#6c0f2b" stroke-width="none" opacity="1" stroke="none"></path><path id="SvgjsPath15914" d="m134.4 0 2 130.8L176.2 0h-41.8zm18 166.9 47.6-14.5v-21.5L171.1 105l-18.7 61.9zm22.9-129.4 12.3 26.8 12.4 6.9V0l-24.7 37.5zm-58.2 0L96.7 26.6 117.1 0 81 18.3 46.7 0h-28l56.2 21.4L0 59.3v93.1L94.8 29l22.3 8.5zM0 200h94.2l42.2-69.2L0 189.1V200z" fill="#5c041f" stroke-width="none" opacity="1" stroke="none"></path><path id="SvgjsPath15915" d="M104.4 70.8 91.1 13.5 166.2 0 90 8.6 88 0H68.2l3.5 10.6L0 18.7v11.1l73.7-13.2 19.5 59-65.3 28L0 70.8v5.4l24 29.2-24 10.2 24.5-9.6 57.4 69.8L51.3 200h27.2l11.1-14.9 12.3 14.9h7.9l-16.7-19.6 24.1-32.4 17.2 52.1-29.2-125.6 94.8-37v-7.6l-95.6 40.9zm12.7 77.1-30.9 24.4-57.7-67.9 65.7-25.7 22.9 69.2zm70.5 52.1H200l-47.6-95.1 35.2 95.1z" fill="#ffffff" stroke-width="none" opacity="1"></path></g><g id="svga-group-humanwrap-move" transform="matrix(1,0,0,1,-2,-6)"><g id="svga-group-humanwrap"><g id="svga-group-hair-back-move" transform="matrix(1,0,0,1,0,0)"><g id="svga-group-hair-back"><path id="SvgjsPath16378" d="m121.3 38-1.3-9.1-4-3.7-10.7-5.7H75L60 31.9 44.7 44.2l-2 19.3-2.4 18 13.7 36-3 13.7-13.7 25 5 22 20.4 15.3 41.3-2.6L121.3 38z" fill="#090808" stroke-width="none" opacity="1"></path><path id="SvgjsPath16379" d="m118.6 34.8-16.5-6.2s-23.4.5-24.4.7c-.9.2-24.1 20.3-24.1 20.3l-4 36.9 5.7 22.2 5.2 20.1 11.3 13.9 6.6 7.8 4.7 11.1 3.6-25.8 16.6-75.4 13-20.3 2.3-5.3z" fill="#000000" stroke-width="none" opacity="1"></path><path id="SvgjsPath16380" d="m85.7 34.1-.7-2.9 12.3-3.9 14.1 2.3-.7 3.1-25 1.4z" fill="#000000" stroke-width="none" opacity="1"></path></g></g><g id="svga-group-humanbody-back"><path id="SvgjsPath15998" d="m168.2 200-4.6-14.2-34.9-13.4-10.8-9.7-1.4-50.5h-33l-1.4 50.5-10.8 9.7-34.9 13.4-4.6 14.2-3 20h142.4z" fill="#ecd1ce" stroke-width="none" opacity="1" stroke="none"></path><path id="SvgjsPath15999" d="m83.5 112.2-1.4 50.5-10.8 9.7-34.9 13.4-4.6 14.2-3 20H39v-20l1.7-13.3 32.1-12.9 14.1-9.5 2-52.1z" fill="#cd918a" stroke-width="none" opacity="1" stroke="none"></path></g><g id="svga-group-chinshadow-single"><path id="SvgjsPath15994" d="m117.5 150.3-1-38.2h-33l-1.1 42.1c2.9 2 6 3.9 9.3 5.8l5.5 1.1 5.5-1.1c5.6-3.1 10.6-6.5 14.8-9.7z" fill="#be756d" stroke-width="none" opacity="1" stroke="none"></path></g><g id="svga-group-humanbody-front"></g><g id="svga-group-clothes-single"><path id="SvgjsPath16133" d="m168.9 200-4.8-14.6-35-13.5-10.8-9.6-.5-14.9-.5-1.1-5.3 2.7-12.1 1.7-12-1.7-5.3-2.7-.5 1.1-.5 14.9-10.8 9.6-35 13.5L31 200l-3 20h144l-3.1-20zm-64.6 3.2h-8.8l-7.9-8.7L93 167l6.9 1.1 6.9-1.1 5.4 27.5-7.9 8.7z" fill="#871425" stroke-width="none" opacity="1" stroke="none"></path><path id="SvgjsPath16134" d="m168.9 200-4.8-14.6-35-13.5-10.8-9.5-.5-14.9-.1-.3-3.8 3.1.4 14.6 12 11.8 34.5 11 4.8 13 3.5 19.3h2.9z" fill="#962536" stroke-width="none" opacity="1" stroke="none"></path><path id="SvgjsPath16135" d="m151.9 195.9-3.8 13.4-.5 10.7h1.5v-10.1l3.5-13.1 6.6-9.1-7.3 8.2zm-52-28.4-8.2-1.4-5.2 28.8 8.6 9.4h9.6l8.6-9.4-5.2-28.8-8.2 1.4zm4.4 35.7h-8.8l-7.9-8.7L93 167l6.9 1.1 6.9-1.1 5.4 27.5-7.9 8.7zM112 149l-12.1 1.7-12-1.7-5.3-2.7-.4.9-.1.2-.5 14.9-10.8 9.6-35 13.5L31 200l-3 20h8l1.7-20 4.8-10.1 5 6.9 3.5 13.1V220h1.5l-.5-10.7-4-13.4-5.5-6.2.1-.3 29.5-11.2 15.6-12.1.1-15.6c1.8 1 3.1 1.8 3.1 1.8l18.5-.2 7.9-5.3-.1-.3-5.2 2.5z" fill="#780617" stroke-width="none" opacity="1" stroke="none"></path></g><g id="svga-group-head" transform="matrix(1,0,0,1,0,0)"><g id="svga-group-ears-left-move" transform="matrix(1,0,0,1,0,0)"><g id="svga-group-ears-left"><path id="SvgjsPath15944" d="m67.3 102.2-3-7.2-9.2-8-3.6 12.9 4.7 12.7-.4 5.6 5 2.4 6-11.1z" fill="#ecd1ce" stroke-width="none" opacity="1" stroke="none"></path><path id="SvgjsPath15945" d="m53.5 100 1.9-8.4 3.7 10.6-.8 1 .4 5.9s-3.3-2.1-3.3-2.7.3-6.2.3-6.2l.9-.3-.9-4.5-1.6 6.1.4 3-1-4.5z" fill="#cd918a" stroke-width="none" opacity="1" stroke="none"></path><path id="SvgjsPath15946" d="m61.4 111.8-.7-12L55.1 87l9.2 8 3 7.2-.5 7.3-6 11.1-5-2.4 4.8.3z" fill="#ddb0ab" stroke-width="none" opacity="1" stroke="none"></path></g></g><g id="svga-group-ears-right-move" transform="matrix(1,0,0,1,0,0)"><g id="svga-group-ears-right"><path id="SvgjsPath15947" d="m132.7 102.2 3-7.2 9.2-8 3.6 12.9-4.7 12.7.4 5.6-5 2.4-6-11.1z" fill="#ecd1ce" stroke-width="none" opacity="1" stroke="none"></path><path id="SvgjsPath15948" d="m146.5 100-1.9-8.4-3.7 10.6.8 1-.4 5.9s3.3-2.1 3.3-2.7-.3-6.2-.3-6.2l-.9-.3.9-4.5 1.6 6.1-.4 3 1-4.5z" fill="#cd918a" stroke-width="none" opacity="1" stroke="none"></path><path id="SvgjsPath15949" d="m138.6 111.8.7-12 5.6-12.8-9.2 8-3 7.2.5 7.3 6 11.1 5-2.4-4.8.3z" fill="#ddb0ab" stroke-width="none" opacity="1" stroke="none"></path></g></g><g id="svga-group-faceshape-wrap"><g id="svga-group-faceshape-single"><path id="SvgjsPath15980" d="M136.8 61c-6.7-11.2-19-18.9-19-18.9-7-1.5-17.8-2.2-17.8-2.2s-10.8.8-17.8 2.2c0 0-12.4 7.6-19 18.9 0 0-5 14-5.2 23.9 0 0 1.4 33.9 4.4 42.6 0 0 12.2 14.4 32.1 25.5l5.5 1.1 5.5-1.1c19.9-11.1 32.1-25.5 32.1-25.5 3-8.7 4.4-42.6 4.4-42.6-.3-9.8-5.2-23.9-5.2-23.9z" fill="#ecd1ce" stroke-width="none" opacity="1" stroke="none"></path><path id="SvgjsPath15981" d="M83.9 44.1c8.8-3 33.9-2 33.9-2-7-1.5-17.8-2.2-17.8-2.2s-10.8.8-17.8 2.2c0 0-12.4 7.6-19 18.9 0 0-5 14-5.2 23.9 0 0 1.4 33.9 4.4 42.6 0 0 8.6 10.2 23.2 20-8.6-8.6-16.4-24.8-16.4-24.8-2.1-9.7-7.4-39-7.4-39 0-3.5 3.9-20.6 3.9-20.6 2-3.9 18.2-19 18.2-19z" fill="#cd918a" stroke-width="none" opacity="1" stroke="none"></path></g></g><g id="svga-group-mouth-single-move" transform="matrix(1,0,0,1,0,0)"><g id="svga-group-mouth-single"><path id="SvgjsPath15932" d="m90.86 133.49.13 1.07 6.52 3.88 11.26-1.42 5.5-6.18s-14.32-.27-14.52-.27-8.89 2.92-8.89 2.92z" fill="#da7c87" stroke-width="none" opacity="1" transform="translate(0 3)" stroke="none"></path><path id="SvgjsPath15933" d="m87.85 133.25 3.14 1.31 9.34-2.99 13.94-.73 3.94-3.5 1.03.51-2.27-2.56.29 1.97-3.57 2.05-8.83-2.27-3.94 2.34-4.89-1.39-6.94 4.89z" fill="#cb5f6c" stroke-width="none" opacity="1" transform="translate(0 3)" stroke="none"></path><path id="SvgjsPath15934" d="m96.42 133.72 4.19-1.4 6.91-.15-6.6 1.63z" fill="#e99ca5" stroke-width="none" opacity="1" transform="translate(0 3)" stroke="none"></path></g></g><g id="svga-group-eyes-left-move" transform="matrix(1,0,0,1,0,0)"><g id="svga-group-eyes-left"><g id="svga-group-eyesback-left"><path id="SvgjsPath16308" d="m90.6 103.9-3.9-7s-12.7-.2-17.6.2c0 0 7.4 5.5 9.3 6.7 0 0 8.1.3 12.2.1z" fill="#ffffff" stroke-width="none" opacity="1"></path></g><g id="svga-group-eyesiriswrapper-left" transform="matrix(1,0,0,1,0,0)"><g id="svga-group-eyesiriscontrol-left" transform="matrix(1,0,0,1,0,0)"><g id="svga-group-eyesiris-left"><path id="SvgjsPath16014" d="m82.59 104.53-4.96-1.82-.91-5.21 4.06-3.39 4.96 1.82.91 5.21z" fill="#141416" stroke-width="none" opacity="1" stroke="none"></path><path id="SvgjsPath16015" d="m78.98 100.2.59-2.78 2.71-.88 2.11 1.9-.59 2.78-2.71.88z" fill="#000000" stroke-width="none" opacity="1"></path><path id="SvgjsPath16016" d="m78.88 96.88 1.96 1.88.55-.39-1.1-2.43z" fill="#ffffff" stroke-width="none" opacity="1"></path><path id="SvgjsPath16017" d="m82.49 101.12.47.86.78-.31-.39-.95z" fill="#ffffff" stroke-width="none" opacity="1"></path></g></g></g><g id="svga-group-eyesfront-left"><path id="SvgjsPath16316" d="M68 94.5v11.1l7.7 7.9h10.9l7.7-7.9V94.5l-7.7-7.9H75.7L68 94.5zm1.1 2.6c4.9-.4 17.6-.2 17.6-.2l3.9 7c-4.1.3-12.2-.1-12.2-.1-1.9-1.3-9.3-6.7-9.3-6.7z" fill="#ecd1ce" stroke-width="none" opacity="1" stroke="none"></path><path id="SvgjsPath16317" d="m93.4 106.5-1 .3-2-2.1-12.2-.5-4.2-3.5 4.5 2.8 11.7.2z" fill="#ddb0ab" stroke-width="none" opacity="1" stroke="none"></path><path id="SvgjsPath16318" d="m68.1 97.2-5.2-2.6 4.9 1.3h2.3L66 93.6l6.5 2.4 3.2.1-5.6-2.6 7.5 2.6 10 .2 5.8 10.2-3.2-2.8-3.4-6.1-16.9-.2 8.6 6.1z" fill="#131111" stroke-width="none" opacity="1" stroke="none"></path></g></g></g><g id="svga-group-eyes-right-move" transform="matrix(1,0,0,1,0,0)"><g id="svga-group-eyes-right"><g id="svga-group-eyesback-right"><path id="SvgjsPath16309" d="m109.4 103.9 3.9-7s12.7-.2 17.6.2c0 0-7.4 5.5-9.3 6.7 0 0-8.1.3-12.2.1z" fill="#ffffff" stroke-width="none" opacity="1"></path></g><g id="svga-group-eyesiriswrapper-right" transform="matrix(1,0,0,1,0,0)"><g id="svga-group-eyesiriscontrol-right" transform="matrix(1,0,0,1,0,0)"><g id="svga-group-eyesiris-right"><path id="SvgjsPath16018" d="m119.22 104.53-4.96-1.82-.91-5.21 4.06-3.39 4.96 1.82.91 5.21z" fill="#141416" stroke-width="none" opacity="1" stroke="none"></path><path id="SvgjsPath16019" d="m115.61 100.2.59-2.78 2.71-.88 2.11 1.9-.59 2.78-2.71.88z" fill="#000000" stroke-width="none" opacity="1"></path><path id="SvgjsPath16020" d="m115.51 96.88 1.96 1.88.55-.39-1.1-2.43z" fill="#ffffff" stroke-width="none" opacity="1"></path><path id="SvgjsPath16021" d="m119.12 101.12.47.86.78-.31-.39-.95z" fill="#ffffff" stroke-width="none" opacity="1"></path></g></g></g><g id="svga-group-eyesfront-right"><path id="SvgjsPath16319" d="M124.3 86.6h-10.9l-7.7 7.9v11.1l7.7 7.9h10.9l7.7-7.9V94.5l-7.7-7.9zm-2.7 17.2s-8.1.4-12.2.1l3.9-7s12.7-.2 17.6.2c0 0-7.4 5.4-9.3 6.7z" fill="#ecd1ce" stroke-width="none" opacity="1" stroke="none"></path><path id="SvgjsPath16322" d="m106.6 106.5 1 .3 2-2.1 12.2-.5 4.2-3.5-4.5 2.8-11.7.2z" fill="#ddb0ab" stroke-width="none" opacity="1" stroke="none"></path><path id="SvgjsPath16323" d="m131.9 97.2 5.2-2.6-4.9 1.3h-2.3l4.1-2.3-6.5 2.4-3.2.1 5.6-2.6-7.5 2.6-10 .2-5.8 10.2 3.2-2.8 3.4-6.1 16.9-.2-8.6 6.1z" fill="#131111" stroke-width="none" opacity="1" stroke="none"></path></g></g></g><g id="svga-group-facehighlight-single"></g><g id="svga-group-eyebrows-left-move" transform="matrix(1,0,0,1,0,0)"><g id="svga-group-eyebrows-left-rotate" transform="matrix(1,1.7453292519943295e-9,-1.7453292519943295e-9,1,1.5114549967165658e-7,-1.3849188462700113e-7)"><g id="svga-group-eyebrows-left"><path id="SvgjsPath16236" d="m93.2 89.1-.6 1.9-2.1 1.2-11.6-5.5-7.1-.1-4.9 3.1 4.3-4.7 7.5-1.4 9.1 2.7z" fill="#2a232b" stroke-width="none" opacity="1" stroke="none"></path><path id="SvgjsPath16237" d="m90 87.5.8.4-.4 2.5-.4-2.9zm-5.5-2.2 1.4 2.4-1.9-2.5.5.1zm3.3 1 .3.2c.2 1.3.5 3.4.5 3.4l-1.4-3.7.6.1zm-5.6-1.6.7 1.3-2-1.7 1.3.4zM71 86.3c-.1 0 0 0 0 0zm-1.7.7c.7-.3 1.3-.6 1.6-.7-.3.2-1.4 1-2.5 1.7l.9-1zm6-2.7 1.6 1.6-2.1-1.5.5-.1zm-4.1.7 1.5-.3 2.3.7c0 .1-2.2-.2-3.8-.4z" fill="#3a353a" stroke-width="none" opacity="1" stroke="none"></path></g></g></g><g id="svga-group-eyebrows-right-move" transform="matrix(1,0,0,1,0,0)"><g id="svga-group-eyebrows-right-rotate" transform="matrix(1,1.7453292519943295e-9,-1.7453292519943295e-9,1,1.5097097616489918e-7,-2.1074851019875496e-7)"><g id="svga-group-eyebrows-right"><path id="SvgjsPath16238" d="m106.8 89.1.6 1.9 2.1 1.2 11.6-5.5 7.1-.1 4.9 3.1-4.3-4.7-7.5-1.4-9.1 2.7z" fill="#2a232b" stroke-width="none" opacity="1" stroke="none"></path><path id="SvgjsPath16239" d="m110 87.5-.8.4.4 2.5.4-2.9zm5.5-2.2-1.4 2.4 1.9-2.5-.5.1zm-3.3 1-.3.2c-.2 1.3-.5 3.4-.5 3.4l1.4-3.7-.6.1zm5.6-1.6-.7 1.3 2-1.7-1.3.4zm11.2 1.6c.1 0 0 0 0 0zm1.7.7c-.7-.3-1.4-.6-1.6-.7.3.2 1.4 1 2.5 1.7l-.9-1zm-6-2.7-1.6 1.6 2.1-1.5-.5-.1zm4.1.7-1.5-.3-2.3.7c0 .1 2.2-.2 3.8-.4z" fill="#3a353a" stroke-width="none" opacity="1" stroke="none"></path></g></g></g><g id="svga-group-nose-single-move" transform="matrix(1,0,0,1,0,0)"><g id="svga-group-nose-single"><path id="SvgjsPath16096" d="m104.26 110.12-1.71-13.72.96 12.74-.75-.19 5.77 8.81-2.05 1.51-1.13-1.32.25-1.17-4.51 3.91h-2.1l-4.51-3.91.25 1.17-1.13 1.32-2.04-1.51 5.76-8.81-.75.19 1.17-19.97-1.92 20.95-5.1 7.73 3.34 2.45 1.26-1.76 3.67 3.42h2.1l3.68-3.42 1.25 1.76 3.34-2.45z" fill="#cd918a" stroke-width="none" opacity="1" transform="translate(0 2)" stroke="none"></path><path id="SvgjsPath16097" d="m96.64 116.02 2.07 1.27 2.71.06 2.24-1.02-.27-1.54-3.14-.53-3.45.59z" fill="#f4e3e1" stroke-width="none" opacity="1" transform="translate(0 2)" stroke="none"></path></g></g><g id="svga-group-hair-front"><path id="SvgjsPath16375" d="M61.5 99.7 57 88.8l.2-12.4 1.1-.9 1.8-10.8 1.2-1.1 1.7-8.2 1.8-1.3 2.3-7.1 8-9.8 5.4-2.3 2.5-1.5 3.4-.3 1.1-1.5 13.7-2 1 1.1 9.6.1 3.1 2.4 7.8 1.8 9.3 8.4 4.6 10.7 2.2 2.6.7 3.2 2.2 2 .5 10.9 1.8 1.8v10.3l-.5 3.6-3.5 7.9-3.1-14.7-4-8.4-2.1-6.3-2.6-3.3-3.2-4.2-5.5.4-2.9-1.5-9.4 3.8-11.1-.2-9.3-3.3-6.3 2.3-3.6-1.4-3.4 5.3-3.7 4.2-2.3 6.1-3.1 6.8-2.9 17.7z" fill="#111010" stroke-width="none" opacity="1"></path><path id="SvgjsPath16376" d="m96.1 62-7.6-10.7-1.2-12.7 1.9-6-4.4 5.4-.2 13.7 2.1 6.9 9.4 3.4zm-15.6-1s-4.3-11.7-4.3-12.2 3.7-11.6 3.7-11.6l3.1-3.7-5.9 3.9-4.2 14.1s3.4 7.7 4.1 8.2c.6.3 3.5 1.3 3.5 1.3zm-7 3.9-6.1-11-.3-6.9-2.3 7.2 2.1 9.2 3 5.7 3.6-4.2zm-12.2-1.3 2 9.3 2.6 6.5-1.8 5.1-6-9 1.8-10.8 1.4-1.1zm45.9-1.4c0-1.1 1.7-17.3 1.7-17.3L105 34.3l-2.9-3.6 5.5 3.4 5.3 11.6-.2 9-2.1 6.3-3.4 1.2zm12.3-2.3c.6-1.1 2-12.2 2-12.9s-3.9-10.6-3.9-10.6l-2.7-3.2 6.4 4.8 5.8 12.3-2.1 9.1-5.5.5zm11.3 7.1 3-12.6-1.8-11 4.6 10.8-1.6 9.6-4.2 3.2zm6.1 14.7 3.4-11.8 1.3-8 .5 10.9-3.1 8.1-2.1.8zm3.1 14.7s1.9-9.8 2.1-11.4 1.9-10.5 1.9-10.5v10.3s-.2 2.8-.5 3.6c-.4.9-3.5 8-3.5 8zm-78.5 3.3L57 88.8l.5-8.2 4 19.1zm4.8 99.8 9.1-12.3-.8-9.9 2.3-11.7-10.2-17.3-15.8-17-9.6 25.1s5.9 19 7.2 19.3S63 188.8 63 189.6s3.3 9.9 3.3 9.9z" fill="#090808" stroke-width="none" opacity="1"></path><path id="SvgjsPath16377" d="M93.4 27.2 75 19.5 44.7 44.2l-4.3 37.3 5.1 12.1L43 77.8l6.2-32.2L75.7 24l17.7 3.2zM51 131.2l-13.7 25 5 22 15.4 11.6 2.7 9.4-2.7 8.3 8.6-8 5.1-10.2-.8-7.5-22-12.6-4-15.3 6.4-22.7zm3.1 9.4-3 13.7 3 14 20.5 9-16.1-12.6-4.4-12.2v-11.9zM93.4 20.1l11.1 2.8 1.3 4.5-3.4-3.4-9-3.9z" fill="#181818" stroke-width="none" opacity="1"></path></g><g id="svga-group-glasses-single-move" transform="matrix(1,0,0,1,0,0)"><g id="svga-group-glasses-single"></g></g></g></g></g><rect id="svga-credit-rect" width="200" height="15" x="0" y="185" fill="#ecf0f1" opacity="0.5" style="display: none;"></rect><text id="svga-credit-text" font-family="Avenir Next, Roboto, Helvetica, Arial, sans-serif" font-size="10px" text-anchor="start" font-weight="400" size="10px" anchor="start" weight="400" fill="#333333" x="33.41065979003906" y="182.50319290161133" style="display: none;"><tspan id="SvgjsTspan15911" dy="13" x="33.41065979003906">Created on AvatarMaker.com</tspan></text></g><defs id="SvgjsDefs15863"></defs></svg>